<svg width="36" height="34" viewBox="0 0 36 34" fill="none" xmlns="http://www.w3.org/2000/svg">
<path d="M23.5609 20.0303C24.0568 18.1281 22.5945 16.1308 20.2949 15.5694C17.9952 15.008 15.7289 16.0949 15.233 17.9972C14.7371 19.8995 16.1993 21.8967 18.499 22.4582C20.7987 23.0196 23.065 21.9326 23.5609 20.0303Z" stroke="#BC799D" stroke-linecap="round" stroke-linejoin="round"/>
<path d="M23.5603 20.0303L27.5597 4.64667C26.8966 7.18817 32.2377 5.94292 31.6053 8.36896" stroke="#BC799D" stroke-linecap="round" stroke-linejoin="round"/>
<path d="M23.3408 12.1678C21.7158 11.2311 19.8016 10.879 17.9348 11.1733C16.0681 11.4676 14.3683 12.3895 13.1346 13.7768C11.9008 15.1641 11.2121 16.928 11.1895 18.7582C11.167 20.5884 11.812 22.3676 13.0112 23.783C14.2103 25.1985 15.8869 26.1593 17.7458 26.4967C19.6048 26.834 21.5271 26.5262 23.1747 25.6274C24.8223 24.7286 26.0897 23.2963 26.7538 21.5826C27.418 19.8688 27.4364 17.9833 26.8059 16.2577" stroke="#BC799D" stroke-linecap="round" stroke-linejoin="round"/>
<path d="M24.3061 8.45398C21.6405 7.23001 18.6003 7.00742 15.7747 7.82937C12.9492 8.65132 10.5397 10.4593 9.01329 12.9027C7.4869 15.3461 6.95238 18.2509 7.51336 21.0541C8.07435 23.8572 9.69086 26.3589 12.0495 28.0742C14.4082 29.7895 17.341 30.5962 20.2793 30.3379C23.2176 30.0796 25.9522 28.7747 27.9529 26.6762C29.9535 24.5777 31.0778 21.835 31.1076 18.98C31.1375 16.1249 30.0709 13.3608 28.1145 11.2236" stroke="#BC799D" stroke-linecap="round" stroke-linejoin="round"/>
<path d="M19.2139 3.63019C15.0402 3.63019 11.0374 5.23468 8.0861 8.09071C5.13482 10.9467 3.47681 14.8203 3.47681 18.8594" stroke="#BC799D" stroke-linecap="round" stroke-linejoin="round"/>
</svg>
