<svg width="55" height="55" viewBox="0 0 55 55" fill="none" xmlns="http://www.w3.org/2000/svg">
<path fill-rule="evenodd" clip-rule="evenodd" d="M9.16667 27.5C9.167 23.9719 10.1853 20.5188 12.0995 17.555C14.0137 14.5913 16.7424 12.2429 19.9581 10.7915C23.1739 9.34011 26.7402 8.84745 30.229 9.37263C33.7178 9.8978 36.981 11.4185 39.627 13.7523C42.273 16.086 44.1894 19.1337 45.1462 22.5296C46.1031 25.9255 46.0597 29.5254 45.0214 32.8973C43.983 36.2691 41.9938 39.2698 39.2924 41.5392C36.591 43.8085 33.2921 45.2502 29.7917 45.6912V32.0833H34.375C34.9828 32.0833 35.5657 31.8419 35.9955 31.4121C36.4252 30.9823 36.6667 30.3995 36.6667 29.7917C36.6667 29.1839 36.4252 28.601 35.9955 28.1712C35.5657 27.7414 34.9828 27.5 34.375 27.5H29.7917V22.9167C29.7917 22.3089 30.0331 21.726 30.4629 21.2962C30.8927 20.8664 31.4755 20.625 32.0833 20.625H33.2292C33.837 20.625 34.4198 20.3836 34.8496 19.9538C35.2794 19.524 35.5208 18.9411 35.5208 18.3333C35.5208 17.7255 35.2794 17.1427 34.8496 16.7129C34.4198 16.2831 33.837 16.0417 33.2292 16.0417H32.0833C30.26 16.0417 28.5113 16.766 27.222 18.0553C25.9327 19.3446 25.2083 21.0933 25.2083 22.9167V27.5H20.625C20.0172 27.5 19.4343 27.7414 19.0045 28.1712C18.5748 28.601 18.3333 29.1839 18.3333 29.7917C18.3333 30.3995 18.5748 30.9823 19.0045 31.4121C19.4343 31.8419 20.0172 32.0833 20.625 32.0833H25.2083V45.6912C20.7779 45.1326 16.7035 42.9762 13.75 39.6269C10.7965 36.2776 9.16674 31.9656 9.16667 27.5ZM27.5 50.4167C40.1569 50.4167 50.4167 40.1569 50.4167 27.5C50.4167 14.8431 40.1569 4.58333 27.5 4.58333C14.8431 4.58333 4.58333 14.8431 4.58333 27.5C4.58333 40.1569 14.8431 50.4167 27.5 50.4167Z" fill="#FCFCFC" fill-opacity="0.93"/>
</svg>
