<svg width="61" height="61" viewBox="0 0 61 61" fill="none" xmlns="http://www.w3.org/2000/svg">
<path d="M42.7114 21.0335C44.2275 21.0335 45.4564 19.8045 45.4564 18.2885C45.4564 16.7724 44.2275 15.5435 42.7114 15.5435C41.1954 15.5435 39.9664 16.7724 39.9664 18.2885C39.9664 19.8045 41.1954 21.0335 42.7114 21.0335Z" fill="white"/>
<path d="M30.5 18.7539C28.1768 18.7539 25.9057 19.4428 23.9741 20.7335C22.0424 22.0242 20.5369 23.8587 19.6478 26.0051C18.7588 28.1515 18.5261 30.5132 18.9794 32.7918C19.4326 35.0704 20.5513 37.1634 22.1941 38.8061C23.8368 40.4489 25.9298 41.5676 28.2084 42.0208C30.487 42.4741 32.8487 42.2414 34.9951 41.3524C37.1415 40.4633 38.976 38.9578 40.2667 37.0261C41.5574 35.0944 42.2463 32.8234 42.2463 30.5002C42.2463 27.3849 41.0087 24.3972 38.8059 22.1943C36.603 19.9915 33.6153 18.7539 30.5 18.7539ZM30.5 38.1252C28.9919 38.1252 27.5177 37.678 26.2638 36.8402C25.0098 36.0023 24.0325 34.8115 23.4554 33.4182C22.8783 32.0249 22.7273 30.4918 23.0215 29.0127C23.3157 27.5335 24.0419 26.1749 25.1083 25.1085C26.1747 24.0422 27.5333 23.3159 29.0124 23.0217C30.4915 22.7275 32.0247 22.8785 33.4179 23.4556C34.8112 24.0328 36.0021 25.0101 36.8399 26.264C37.6778 27.5179 38.125 28.9921 38.125 30.5002C38.125 32.5225 37.3216 34.4619 35.8917 35.8919C34.4617 37.3219 32.5223 38.1252 30.5 38.1252Z" fill="white"/>
<path d="M30.5 11.7463C36.6076 11.7463 37.332 11.7692 39.7434 11.8797C41.1938 11.897 42.6304 12.1633 43.9905 12.667C44.9773 13.0477 45.8735 13.6307 46.6214 14.3786C47.3693 15.1265 47.9523 16.0227 48.333 17.0095C48.8367 18.3696 49.103 19.8062 49.1203 21.2566C49.2308 23.668 49.2537 24.3924 49.2537 30.5019C49.2537 36.6114 49.2308 37.332 49.1203 39.7434C49.103 41.1938 48.8367 42.6304 48.333 43.9905C47.9523 44.9773 47.3693 45.8735 46.6214 46.6214C45.8735 47.3693 44.9773 47.9523 43.9905 48.333C42.6304 48.8367 41.1938 49.103 39.7434 49.1203C37.332 49.2308 36.6076 49.2537 30.5 49.2537C24.3924 49.2537 23.668 49.2308 21.2566 49.1203C19.8062 49.103 18.3696 48.8367 17.0095 48.333C16.0227 47.9523 15.1265 47.3693 14.3786 46.6214C13.6307 45.8735 13.0477 44.9773 12.667 43.9905C12.1633 42.6304 11.897 41.1938 11.8797 39.7434C11.7692 37.332 11.7463 36.6076 11.7463 30.5C11.7463 24.3924 11.7692 23.668 11.8797 21.2566C11.897 19.8062 12.1633 18.3696 12.667 17.0095C13.0477 16.0227 13.6307 15.1265 14.3786 14.3786C15.1265 13.6307 16.0227 13.0477 17.0095 12.667C18.3696 12.1633 19.8062 11.897 21.2566 11.8797C23.668 11.7692 24.3924 11.7463 30.5 11.7463ZM30.5 7.625C24.2875 7.625 23.5079 7.65169 21.0679 7.76225C19.1707 7.80056 17.2938 8.16022 15.5169 8.82594C13.9971 9.41363 12.6168 10.3124 11.4646 11.4646C10.3124 12.6168 9.41363 13.9971 8.82594 15.5169C8.16001 17.2944 7.80034 19.172 7.76225 21.0698C7.65169 23.5098 7.625 24.2856 7.625 30.5C7.625 36.7144 7.65169 37.4921 7.76225 39.9321C7.80056 41.8293 8.16022 43.7062 8.82594 45.4831C9.41363 47.0029 10.3124 48.3832 11.4646 49.5354C12.6168 50.6876 13.9971 51.5864 15.5169 52.1741C17.2944 52.84 19.172 53.1997 21.0698 53.2377C23.5098 53.3483 24.2875 53.375 30.5 53.375C36.7125 53.375 37.4921 53.3483 39.9321 53.2377C41.8299 53.1997 43.7075 52.84 45.485 52.1741C47.0048 51.5864 48.3851 50.6876 49.5373 49.5354C50.6895 48.3832 51.5883 47.0029 52.176 45.4831C52.8413 43.7055 53.2003 41.8279 53.2377 39.9302C53.3483 37.4902 53.375 36.7144 53.375 30.5C53.375 24.2856 53.3483 23.5079 53.2377 21.0679C53.1994 19.1707 52.8398 17.2938 52.1741 15.5169C51.5864 13.9971 50.6876 12.6168 49.5354 11.4646C48.3832 10.3124 47.0029 9.41363 45.4831 8.82594C43.7055 8.16066 41.8279 7.80164 39.9302 7.76416C37.4902 7.64978 36.7144 7.625 30.5 7.625Z" fill="white"/>
</svg>
