<svg width="54" height="54" viewBox="0 0 54 54" fill="none" xmlns="http://www.w3.org/2000/svg">
<path d="M27 45C31.7739 45 36.3523 43.1036 39.7279 39.7279C43.1036 36.3523 45 31.7739 45 27C45 22.2261 43.1036 17.6477 39.7279 14.2721C36.3523 10.8964 31.7739 9 27 9C22.2261 9 17.6477 10.8964 14.2721 14.2721C10.8964 17.6477 9 22.2261 9 27C9 31.7739 10.8964 36.3523 14.2721 39.7279C17.6477 43.1036 22.2261 45 27 45ZM27 49.5C14.5732 49.5 4.5 39.4267 4.5 27C4.5 14.5732 14.5732 4.5 27 4.5C39.4267 4.5 49.5 14.5732 49.5 27C49.5 39.4267 39.4267 49.5 27 49.5Z" fill="#FCFCFC"/>
<path d="M33.5767 19.1836H20.4232C17.8425 19.1836 15.75 21.2536 15.75 23.8051V30.3076C15.75 32.8613 17.8425 34.9291 20.4232 34.9291H33.5767C36.1575 34.9291 38.25 32.8591 38.25 30.3076V23.8051C38.25 21.2513 36.1575 19.1836 33.5767 19.1836ZM30.4177 27.3736L24.264 30.2761C24.2264 30.2939 24.1848 30.3019 24.1433 30.2994C24.1017 30.2968 24.0615 30.2839 24.0262 30.2617C23.991 30.2395 23.962 30.2087 23.9418 30.1723C23.9216 30.1359 23.9109 30.095 23.9107 30.0533V24.0683C23.9111 24.0262 23.9223 23.9848 23.9431 23.9481C23.964 23.9115 23.9939 23.8808 24.0299 23.8589C24.066 23.837 24.107 23.8247 24.1492 23.8232C24.1913 23.8217 24.2332 23.8309 24.2707 23.8501L30.4222 26.9326C30.4627 26.9537 30.4965 26.9856 30.52 27.0248C30.5434 27.064 30.5556 27.1088 30.5551 27.1545C30.5546 27.2001 30.5416 27.2447 30.5173 27.2834C30.4931 27.3221 30.4586 27.3533 30.4177 27.3736Z" fill="#FCFCFC"/>
</svg>
